<svg xmlns="http://www.w3.org/2000/svg" width="320" height="130" viewBox="0 0 320 130"><rect x="0" y="23" width="38" height="107" fill="#332f5c"/><rect x="4" y="39" width="3" height="4" fill="#4a447f"/><rect x="4" y="59" width="3" height="4" fill="#4a447f"/><rect x="4" y="89" width="3" height="4" fill="#4a447f"/><rect x="4" y="99" width="3" height="4" fill="#4a447f"/><rect x="4" y="119" width="3" height="4" fill="#4a447f"/><rect x="12" y="39" width="3" height="4" fill="#4a447f"/><rect x="12" y="89" width="3" height="4" fill="#4a447f"/><rect x="12" y="109" width="3" height="4" fill="#4a447f"/><rect x="12" y="119" width="3" height="4" fill="#4a447f"/><rect x="20" y="39" width="3" height="4" fill="#4a447f"/><rect x="20" y="99" width="3" height="4" fill="#4a447f"/><rect x="20" y="119" width="3" height="4" fill="#4a447f"/><rect x="28" y="29" width="3" height="4" fill="#4a447f"/><rect x="38" y="33" width="35" height="97" fill="#332f5c"/><rect x="42" y="49" width="3" height="4" fill="#4a447f"/><rect x="42" y="99" width="3" height="4" fill="#4a447f"/><rect x="42" y="119" width="3" height="4" fill="#4a447f"/><rect x="50" y="59" width="3" height="4" fill="#4a447f"/><rect x="50" y="79" width="3" height="4" fill="#4a447f"/><rect x="58" y="39" width="3" height="4" fill="#4a447f"/><rect x="66" y="39" width="3" height="4" fill="#4a447f"/><rect x="66" y="89" width="3" height="4" fill="#4a447f"/><rect x="66" y="119" width="3" height="4" fill="#4a447f"/><rect x="73" y="62" width="42" height="68" fill="#332f5c"/><rect x="77" y="88" width="3" height="4" fill="#4a447f"/><rect x="77" y="98" width="3" height="4" fill="#4a447f"/><rect x="85" y="88" width="3" height="4" fill="#4a447f"/><rect x="85" y="108" width="3" height="4" fill="#4a447f"/><rect x="85" y="118" width="3" height="4" fill="#4a447f"/><rect x="101" y="68" width="3" height="4" fill="#4a447f"/><rect x="101" y="78" width="3" height="4" fill="#4a447f"/><rect x="101" y="88" width="3" height="4" fill="#4a447f"/><rect x="101" y="108" width="3" height="4" fill="#4a447f"/><rect x="115" y="68" width="33" height="62" fill="#332f5c"/><rect x="119" y="74" width="3" height="4" fill="#4a447f"/><rect x="127" y="114" width="3" height="4" fill="#4a447f"/><rect x="148" y="59" width="40" height="71" fill="#332f5c"/><rect x="152" y="85" width="3" height="4" fill="#4a447f"/><rect x="152" y="115" width="3" height="4" fill="#4a447f"/><rect x="160" y="75" width="3" height="4" fill="#4a447f"/><rect x="168" y="65" width="3" height="4" fill="#4a447f"/><rect x="168" y="75" width="3" height="4" fill="#4a447f"/><rect x="176" y="75" width="3" height="4" fill="#4a447f"/><rect x="176" y="115" width="3" height="4" fill="#4a447f"/><rect x="188" y="78" width="32" height="52" fill="#332f5c"/><rect x="192" y="84" width="3" height="4" fill="#4a447f"/><rect x="192" y="94" width="3" height="4" fill="#4a447f"/><rect x="192" y="114" width="3" height="4" fill="#4a447f"/><rect x="200" y="84" width="3" height="4" fill="#4a447f"/><rect x="200" y="114" width="3" height="4" fill="#4a447f"/><rect x="208" y="94" width="3" height="4" fill="#4a447f"/><rect x="220" y="79" width="55" height="51" fill="#332f5c"/><rect x="232" y="85" width="3" height="4" fill="#4a447f"/><rect x="240" y="115" width="3" height="4" fill="#4a447f"/><rect x="248" y="85" width="3" height="4" fill="#4a447f"/><rect x="248" y="115" width="3" height="4" fill="#4a447f"/><rect x="264" y="95" width="3" height="4" fill="#4a447f"/><rect x="264" y="115" width="3" height="4" fill="#4a447f"/><rect x="275" y="24" width="53" height="106" fill="#332f5c"/><rect x="279" y="60" width="3" height="4" fill="#4a447f"/><rect x="279" y="70" width="3" height="4" fill="#4a447f"/><rect x="279" y="80" width="3" height="4" fill="#4a447f"/><rect x="279" y="90" width="3" height="4" fill="#4a447f"/><rect x="287" y="60" width="3" height="4" fill="#4a447f"/><rect x="287" y="120" width="3" height="4" fill="#4a447f"/><rect x="295" y="40" width="3" height="4" fill="#4a447f"/><rect x="295" y="110" width="3" height="4" fill="#4a447f"/><rect x="295" y="120" width="3" height="4" fill="#4a447f"/><rect x="303" y="30" width="3" height="4" fill="#4a447f"/><rect x="303" y="60" width="3" height="4" fill="#4a447f"/><rect x="303" y="120" width="3" height="4" fill="#4a447f"/><rect x="311" y="30" width="3" height="4" fill="#4a447f"/><rect x="311" y="110" width="3" height="4" fill="#4a447f"/><rect x="311" y="120" width="3" height="4" fill="#4a447f"/><rect x="319" y="30" width="3" height="4" fill="#4a447f"/><rect x="319" y="40" width="3" height="4" fill="#4a447f"/><rect x="319" y="60" width="3" height="4" fill="#4a447f"/><rect x="319" y="80" width="3" height="4" fill="#4a447f"/></svg>